<svg width="24" height="24" viewBox="0 0 24 24" fill="none" xmlns="http://www.w3.org/2000/svg">
<g id="ph:bell-simple-fill">
<path id="Vector" d="M20.7281 18C20.5969 18.2293 20.407 18.4195 20.178 18.5513C19.9491 18.6831 19.6892 18.7517 19.425 18.75H4.575C4.31081 18.7517 4.05092 18.6831 3.82195 18.5513C3.59297 18.4195 3.40313 18.2293 3.27187 18C3.138 17.7707 3.06823 17.5096 3.06988 17.244C3.07153 16.9785 3.14453 16.7183 3.28125 16.4906C3.83437 15.5344 4.5 13.7156 4.5 10.5V9.75C4.49876 8.76474 4.69192 7.78891 5.06839 6.87841C5.44486 5.96791 5.99726 5.14063 6.69395 4.44395C7.39063 3.74726 8.21791 3.19486 9.12841 2.81839C10.0389 2.44192 11.0147 2.24876 12 2.25H12.0562C16.1625 2.27812 19.5 5.68125 19.5 9.83437V10.5C19.5 13.7156 20.1656 15.5344 20.7187 16.4906C20.8555 16.7183 20.9285 16.9785 20.9301 17.244C20.9318 17.5096 20.862 17.7707 20.7281 18ZM14.9906 20.25H8.99062C8.79171 20.25 8.60095 20.329 8.46029 20.4697C8.31964 20.6103 8.24062 20.8011 8.24062 21C8.24062 21.1989 8.31964 21.3897 8.46029 21.5303C8.60095 21.671 8.79171 21.75 8.99062 21.75H14.9906C15.1895 21.75 15.3803 21.671 15.521 21.5303C15.6616 21.3897 15.7406 21.1989 15.7406 21C15.7406 20.8011 15.6616 20.6103 15.521 20.4697C15.3803 20.329 15.1895 20.25 14.9906 20.25Z" fill="#101010"/>
</g>
</svg>
