<svg width="22" height="22" viewBox="0 0 22 22" fill="none" xmlns="http://www.w3.org/2000/svg">
<g id="majesticons:logout">
<path id="Vector" fill-rule="evenodd" clip-rule="evenodd" d="M5.5 1.83334C4.77065 1.83334 4.07118 2.12307 3.55546 2.6388C3.03973 3.15452 2.75 3.854 2.75 4.58334V17.4167C2.75 18.146 3.03973 18.8455 3.55546 19.3612C4.07118 19.8769 4.77065 20.1667 5.5 20.1667H11C11.7293 20.1667 12.4288 19.8769 12.9445 19.3612C13.4603 18.8455 13.75 18.146 13.75 17.4167V4.58334C13.75 3.854 13.4603 3.15452 12.9445 2.6388C12.4288 2.12307 11.7293 1.83334 11 1.83334H5.5ZM14.9352 6.68526C15.1072 6.51341 15.3403 6.41687 15.5833 6.41687C15.8264 6.41687 16.0595 6.51341 16.2314 6.68526L19.8981 10.3519C20.0699 10.5238 20.1665 10.7569 20.1665 11C20.1665 11.2431 20.0699 11.4762 19.8981 11.6481L16.2314 15.3148C16.0585 15.4817 15.827 15.5741 15.5866 15.572C15.3463 15.57 15.1164 15.4736 14.9464 15.3036C14.7765 15.1336 14.6801 14.9037 14.678 14.6634C14.6759 14.423 14.7683 14.1915 14.9352 14.0186L17.0372 11.9167H9.16667C8.92355 11.9167 8.69039 11.8201 8.51849 11.6482C8.34658 11.4763 8.25 11.2431 8.25 11C8.25 10.7569 8.34658 10.5237 8.51849 10.3518C8.69039 10.1799 8.92355 10.0833 9.16667 10.0833H17.0372L14.9352 7.98143C14.7634 7.80953 14.6669 7.57641 14.6669 7.33334C14.6669 7.09028 14.7634 6.85716 14.9352 6.68526Z" fill="#101010"/>
</g>
</svg>
