<svg width="24" height="24" viewBox="0 0 24 24" fill="none" xmlns="http://www.w3.org/2000/svg">
<g id="ant-design:setting-filled">
<path id="Vector" d="M12.0117 9.15469C11.3109 9.15469 10.6547 9.42656 10.1578 9.92344C9.66328 10.4203 9.38907 11.0766 9.38907 11.7773C9.38907 12.4781 9.66328 13.1344 10.1578 13.6313C10.6547 14.1258 11.3109 14.4 12.0117 14.4C12.7125 14.4 13.3688 14.1258 13.8656 13.6313C14.3602 13.1344 14.6344 12.4781 14.6344 11.7773C14.6344 11.0766 14.3602 10.4203 13.8656 9.92344C13.6229 9.67888 13.3341 9.48499 13.0158 9.35302C12.6976 9.22105 12.3563 9.15363 12.0117 9.15469ZM21.675 14.6742L20.1422 13.3641C20.2148 12.9188 20.2523 12.4641 20.2523 12.0117C20.2523 11.5594 20.2148 11.1023 20.1422 10.6594L21.675 9.34922C21.7908 9.25009 21.8737 9.11807 21.9126 8.9707C21.9515 8.82333 21.9447 8.6676 21.893 8.52422L21.8719 8.46328C21.45 7.28365 20.8179 6.19021 20.0063 5.23594L19.9641 5.18672C19.8655 5.07083 19.7341 4.98752 19.5873 4.94777C19.4404 4.90802 19.285 4.9137 19.1414 4.96406L17.2383 5.64141C16.5352 5.06484 15.7523 4.61016 14.9039 4.29375L14.5359 2.30391C14.5082 2.15401 14.4355 2.0161 14.3275 1.90851C14.2194 1.80092 14.0813 1.72874 13.9313 1.70156L13.868 1.68984C12.6492 1.46953 11.3648 1.46953 10.1461 1.68984L10.0828 1.70156C9.93281 1.72874 9.79462 1.80092 9.68661 1.90851C9.57861 2.0161 9.50589 2.15401 9.47813 2.30391L9.10782 4.30313C8.26741 4.62205 7.48452 5.07564 6.78985 5.64609L4.87266 4.96406C4.72914 4.9133 4.57358 4.90742 4.42663 4.94719C4.27969 4.98696 4.14833 5.0705 4.05 5.18672L4.00782 5.23594C3.19756 6.19123 2.56564 7.28439 2.14219 8.46328L2.1211 8.52422C2.01563 8.81719 2.10235 9.14531 2.33907 9.34922L3.89063 10.6734C3.81797 11.1141 3.78282 11.5641 3.78282 12.0094C3.78282 12.4594 3.81797 12.9094 3.89063 13.3453L2.34375 14.6695C2.22796 14.7687 2.14509 14.9007 2.10615 15.0481C2.06722 15.1954 2.07407 15.3511 2.12578 15.4945L2.14688 15.5555C2.5711 16.7344 3.19688 17.8242 4.0125 18.7828L4.05469 18.832C4.15326 18.9479 4.28462 19.0312 4.43148 19.071C4.57833 19.1107 4.73378 19.1051 4.87735 19.0547L6.79453 18.3727C7.49297 18.9469 8.2711 19.4016 9.1125 19.7156L9.48282 21.7148C9.51058 21.8647 9.58329 22.0027 9.6913 22.1102C9.79931 22.2178 9.9375 22.29 10.0875 22.3172L10.1508 22.3289C11.3815 22.5504 12.6419 22.5504 13.8727 22.3289L13.9359 22.3172C14.0859 22.29 14.2241 22.2178 14.3321 22.1102C14.4402 22.0027 14.5129 21.8647 14.5406 21.7148L14.9086 19.725C15.757 19.4063 16.5398 18.9539 17.243 18.3773L19.1461 19.0547C19.2896 19.1055 19.4452 19.1113 19.5921 19.0716C19.7391 19.0318 19.8704 18.9482 19.9688 18.832L20.0109 18.7828C20.8266 17.8195 21.4523 16.7344 21.8766 15.5555L21.8977 15.4945C21.9984 15.2039 21.9117 14.8781 21.675 14.6742ZM12.0117 15.8977C9.73594 15.8977 7.89141 14.0531 7.89141 11.7773C7.89141 9.50156 9.73594 7.65703 12.0117 7.65703C14.2875 7.65703 16.132 9.50156 16.132 11.7773C16.132 14.0531 14.2875 15.8977 12.0117 15.8977Z" fill="#101010"/>
</g>
</svg>
